<mxfile host="app.diagrams.net" modified="2020-12-10T03:39:41.238Z" agent="5.0 (Windows NT 10.0; WOW64) AppleWebKit/537.36 (KHTML, like Gecko) Chrome/87.0.4270.0 Safari/537.36" etag="w2hun8MlGM2xR1vzRSsi" version="14.0.0" type="github" pages="2">
  <diagram id="NQUb9MeZ4iltNxb62r_-" name="Page-1">
    <mxGraphModel dx="1038" dy="579" grid="1" gridSize="10" guides="1" tooltips="1" connect="1" arrows="1" fold="1" page="1" pageScale="1" pageWidth="827" pageHeight="1169" math="0" shadow="0">
      <root>
        <mxCell id="0" />
        <mxCell id="1" parent="0" />
        <mxCell id="-ExvxjixvBvb-hfgMY59-1" value="OP" style="rounded=0;whiteSpace=wrap;html=1;fontSize=14;fillColor=#ffe6cc;strokeColor=#d79b00;" parent="1" vertex="1">
          <mxGeometry x="130" y="210" width="120" height="40" as="geometry" />
        </mxCell>
        <mxCell id="-ExvxjixvBvb-hfgMY59-2" value="A1" style="rounded=0;whiteSpace=wrap;html=1;fontSize=14;" parent="1" vertex="1">
          <mxGeometry x="250" y="210" width="120" height="40" as="geometry" />
        </mxCell>
        <mxCell id="-ExvxjixvBvb-hfgMY59-3" value="A2" style="rounded=0;whiteSpace=wrap;html=1;fontSize=14;" parent="1" vertex="1">
          <mxGeometry x="370" y="210" width="120" height="40" as="geometry" />
        </mxCell>
        <mxCell id="-ExvxjixvBvb-hfgMY59-4" value="A3（结果）" style="rounded=0;whiteSpace=wrap;html=1;fontSize=14;" parent="1" vertex="1">
          <mxGeometry x="490" y="210" width="120" height="40" as="geometry" />
        </mxCell>
        <mxCell id="-ExvxjixvBvb-hfgMY59-5" value="A4（下址）" style="rounded=0;whiteSpace=wrap;html=1;fontSize=14;" parent="1" vertex="1">
          <mxGeometry x="610" y="210" width="120" height="40" as="geometry" />
        </mxCell>
      </root>
    </mxGraphModel>
  </diagram>
  <diagram id="5Nt68BkLebjqIDuQ78zO" name="Page-2">
    <mxGraphModel dx="1038" dy="579" grid="1" gridSize="10" guides="1" tooltips="1" connect="1" arrows="1" fold="1" page="1" pageScale="1" pageWidth="1169" pageHeight="1654" math="0" shadow="0">
      <root>
        <mxCell id="BUosscFTYAn1jjuJmevA-0" />
        <mxCell id="BUosscFTYAn1jjuJmevA-1" parent="BUosscFTYAn1jjuJmevA-0" />
        <mxCell id="BUosscFTYAn1jjuJmevA-2" value="" style="rounded=0;whiteSpace=wrap;html=1;fillColor=#f5f5f5;strokeColor=#666666;fontColor=#333333;" parent="BUosscFTYAn1jjuJmevA-1" vertex="1">
          <mxGeometry x="120" y="160" width="120" height="220" as="geometry" />
        </mxCell>
        <mxCell id="BUosscFTYAn1jjuJmevA-3" value="" style="rounded=0;whiteSpace=wrap;html=1;fillColor=#dae8fc;strokeColor=#6c8ebf;" parent="BUosscFTYAn1jjuJmevA-1" vertex="1">
          <mxGeometry x="320" y="160" width="120" height="220" as="geometry" />
        </mxCell>
        <mxCell id="BUosscFTYAn1jjuJmevA-4" value="" style="rounded=0;whiteSpace=wrap;html=1;fillColor=#d5e8d4;strokeColor=#82b366;" parent="BUosscFTYAn1jjuJmevA-1" vertex="1">
          <mxGeometry x="520" y="160" width="120" height="220" as="geometry" />
        </mxCell>
        <mxCell id="BUosscFTYAn1jjuJmevA-5" value="" style="rounded=0;whiteSpace=wrap;html=1;fillColor=#e1d5e7;strokeColor=#9673a6;" parent="BUosscFTYAn1jjuJmevA-1" vertex="1">
          <mxGeometry x="920" y="160" width="120" height="220" as="geometry" />
        </mxCell>
        <mxCell id="BUosscFTYAn1jjuJmevA-6" value="" style="rounded=0;whiteSpace=wrap;html=1;fillColor=#ffe6cc;strokeColor=#d79b00;" parent="BUosscFTYAn1jjuJmevA-1" vertex="1">
          <mxGeometry x="720" y="160" width="120" height="220" as="geometry" />
        </mxCell>
        <mxCell id="BUosscFTYAn1jjuJmevA-7" value="&lt;font style=&quot;font-size: 20px&quot;&gt;表现层&lt;/font&gt;" style="text;html=1;strokeColor=none;fillColor=none;align=center;verticalAlign=middle;whiteSpace=wrap;rounded=0;" parent="BUosscFTYAn1jjuJmevA-1" vertex="1">
          <mxGeometry x="145" y="170" width="70" height="20" as="geometry" />
        </mxCell>
        <mxCell id="BUosscFTYAn1jjuJmevA-8" value="&lt;font style=&quot;font-size: 20px&quot;&gt;JSP&lt;/font&gt;" style="text;html=1;strokeColor=none;fillColor=none;align=center;verticalAlign=middle;whiteSpace=wrap;rounded=0;" parent="BUosscFTYAn1jjuJmevA-1" vertex="1">
          <mxGeometry x="160" y="210" width="40" height="20" as="geometry" />
        </mxCell>
        <mxCell id="BUosscFTYAn1jjuJmevA-9" value="控制层" style="text;html=1;strokeColor=none;fillColor=none;align=center;verticalAlign=middle;whiteSpace=wrap;rounded=0;fontSize=20;" parent="BUosscFTYAn1jjuJmevA-1" vertex="1">
          <mxGeometry x="345" y="170" width="70" height="20" as="geometry" />
        </mxCell>
        <mxCell id="BUosscFTYAn1jjuJmevA-10" value="Controller" style="text;html=1;strokeColor=none;fillColor=none;align=center;verticalAlign=middle;whiteSpace=wrap;rounded=0;fontSize=20;" parent="BUosscFTYAn1jjuJmevA-1" vertex="1">
          <mxGeometry x="355" y="210" width="50" height="20" as="geometry" />
        </mxCell>
        <mxCell id="BUosscFTYAn1jjuJmevA-11" value="业务层" style="text;html=1;strokeColor=none;fillColor=none;align=center;verticalAlign=middle;whiteSpace=wrap;rounded=0;fontSize=20;" parent="BUosscFTYAn1jjuJmevA-1" vertex="1">
          <mxGeometry x="545" y="170" width="70" height="20" as="geometry" />
        </mxCell>
        <mxCell id="BUosscFTYAn1jjuJmevA-12" value="Service" style="text;html=1;strokeColor=none;fillColor=none;align=center;verticalAlign=middle;whiteSpace=wrap;rounded=0;fontSize=20;" parent="BUosscFTYAn1jjuJmevA-1" vertex="1">
          <mxGeometry x="560" y="210" width="40" height="20" as="geometry" />
        </mxCell>
        <mxCell id="BUosscFTYAn1jjuJmevA-13" value="数据操作" style="text;html=1;strokeColor=none;fillColor=none;align=center;verticalAlign=middle;whiteSpace=wrap;rounded=0;fontSize=20;" parent="BUosscFTYAn1jjuJmevA-1" vertex="1">
          <mxGeometry x="732.5" y="170" width="95" height="20" as="geometry" />
        </mxCell>
        <mxCell id="BUosscFTYAn1jjuJmevA-14" value="Dao" style="text;html=1;strokeColor=none;fillColor=none;align=center;verticalAlign=middle;whiteSpace=wrap;rounded=0;fontSize=20;" parent="BUosscFTYAn1jjuJmevA-1" vertex="1">
          <mxGeometry x="760" y="210" width="40" height="20" as="geometry" />
        </mxCell>
        <mxCell id="BUosscFTYAn1jjuJmevA-15" value="数据库" style="text;html=1;strokeColor=none;fillColor=none;align=center;verticalAlign=middle;whiteSpace=wrap;rounded=0;fontSize=20;" parent="BUosscFTYAn1jjuJmevA-1" vertex="1">
          <mxGeometry x="940" y="170" width="80" height="20" as="geometry" />
        </mxCell>
        <mxCell id="BUosscFTYAn1jjuJmevA-16" value="MYSQL" style="text;html=1;strokeColor=none;fillColor=none;align=center;verticalAlign=middle;whiteSpace=wrap;rounded=0;fontSize=20;" parent="BUosscFTYAn1jjuJmevA-1" vertex="1">
          <mxGeometry x="960" y="210" width="40" height="20" as="geometry" />
        </mxCell>
        <mxCell id="XWgAUVcv_2Dy-B0LPTtw-0" value="" style="endArrow=classic;html=1;fontSize=20;entryX=0;entryY=0.5;entryDx=0;entryDy=0;exitX=1;exitY=0.5;exitDx=0;exitDy=0;fontStyle=0;strokeColor=#00CC00;" edge="1" parent="BUosscFTYAn1jjuJmevA-1" source="BUosscFTYAn1jjuJmevA-2" target="BUosscFTYAn1jjuJmevA-3">
          <mxGeometry width="50" height="50" relative="1" as="geometry">
            <mxPoint x="240" y="340" as="sourcePoint" />
            <mxPoint x="290" y="290" as="targetPoint" />
          </mxGeometry>
        </mxCell>
        <mxCell id="XWgAUVcv_2Dy-B0LPTtw-2" value="" style="endArrow=classic;html=1;fontSize=20;entryX=0;entryY=0.5;entryDx=0;entryDy=0;exitX=1;exitY=0.5;exitDx=0;exitDy=0;strokeColor=#00CC00;" edge="1" parent="BUosscFTYAn1jjuJmevA-1">
          <mxGeometry width="50" height="50" relative="1" as="geometry">
            <mxPoint x="640" y="269.5" as="sourcePoint" />
            <mxPoint x="720" y="269.5" as="targetPoint" />
          </mxGeometry>
        </mxCell>
        <mxCell id="XWgAUVcv_2Dy-B0LPTtw-3" value="" style="endArrow=classic;html=1;fontSize=20;entryX=0;entryY=0.5;entryDx=0;entryDy=0;exitX=1;exitY=0.5;exitDx=0;exitDy=0;strokeColor=#00CC00;" edge="1" parent="BUosscFTYAn1jjuJmevA-1">
          <mxGeometry width="50" height="50" relative="1" as="geometry">
            <mxPoint x="440" y="269.5" as="sourcePoint" />
            <mxPoint x="520" y="269.5" as="targetPoint" />
          </mxGeometry>
        </mxCell>
        <mxCell id="XWgAUVcv_2Dy-B0LPTtw-4" value="" style="endArrow=classic;html=1;fontSize=20;entryX=0;entryY=0.5;entryDx=0;entryDy=0;exitX=1;exitY=0.5;exitDx=0;exitDy=0;" edge="1" parent="BUosscFTYAn1jjuJmevA-1">
          <mxGeometry width="50" height="50" relative="1" as="geometry">
            <mxPoint x="840" y="269.5" as="sourcePoint" />
            <mxPoint x="920" y="269.5" as="targetPoint" />
          </mxGeometry>
        </mxCell>
        <mxCell id="XWgAUVcv_2Dy-B0LPTtw-5" value="" style="endArrow=classic;html=1;fontSize=20;exitX=0.01;exitY=0.72;exitDx=0;exitDy=0;exitPerimeter=0;strokeColor=#0000CC;" edge="1" parent="BUosscFTYAn1jjuJmevA-1" source="BUosscFTYAn1jjuJmevA-3">
          <mxGeometry width="50" height="50" relative="1" as="geometry">
            <mxPoint x="230" y="420" as="sourcePoint" />
            <mxPoint x="240" y="318" as="targetPoint" />
          </mxGeometry>
        </mxCell>
        <mxCell id="XWgAUVcv_2Dy-B0LPTtw-6" value="" style="endArrow=classic;html=1;fontSize=20;exitX=0;exitY=0.75;exitDx=0;exitDy=0;strokeColor=#0000CC;" edge="1" parent="BUosscFTYAn1jjuJmevA-1">
          <mxGeometry width="50" height="50" relative="1" as="geometry">
            <mxPoint x="920" y="320" as="sourcePoint" />
            <mxPoint x="840" y="320" as="targetPoint" />
          </mxGeometry>
        </mxCell>
        <mxCell id="XWgAUVcv_2Dy-B0LPTtw-7" value="" style="endArrow=classic;html=1;fontSize=20;exitX=0;exitY=0.75;exitDx=0;exitDy=0;strokeColor=#0000CC;" edge="1" parent="BUosscFTYAn1jjuJmevA-1">
          <mxGeometry width="50" height="50" relative="1" as="geometry">
            <mxPoint x="720" y="320" as="sourcePoint" />
            <mxPoint x="640" y="320" as="targetPoint" />
          </mxGeometry>
        </mxCell>
        <mxCell id="XWgAUVcv_2Dy-B0LPTtw-8" value="" style="endArrow=classic;html=1;fontSize=20;exitX=0;exitY=0.75;exitDx=0;exitDy=0;" edge="1" parent="BUosscFTYAn1jjuJmevA-1">
          <mxGeometry width="50" height="50" relative="1" as="geometry">
            <mxPoint x="520" y="320" as="sourcePoint" />
            <mxPoint x="440" y="320" as="targetPoint" />
          </mxGeometry>
        </mxCell>
        <mxCell id="XWgAUVcv_2Dy-B0LPTtw-9" value="&lt;b&gt;&lt;font color=&quot;#00cc00&quot;&gt;请求&lt;/font&gt;&lt;/b&gt;" style="text;html=1;strokeColor=none;fillColor=none;align=center;verticalAlign=middle;whiteSpace=wrap;rounded=0;fontSize=20;" vertex="1" parent="BUosscFTYAn1jjuJmevA-1">
          <mxGeometry x="250" y="250" width="60" height="20" as="geometry" />
        </mxCell>
        <mxCell id="XWgAUVcv_2Dy-B0LPTtw-10" value="&lt;font color=&quot;#0000cc&quot;&gt;&lt;b&gt;响应&lt;/b&gt;&lt;/font&gt;" style="text;html=1;strokeColor=none;fillColor=none;align=center;verticalAlign=middle;whiteSpace=wrap;rounded=0;fontSize=20;" vertex="1" parent="BUosscFTYAn1jjuJmevA-1">
          <mxGeometry x="255" y="320" width="50" height="20" as="geometry" />
        </mxCell>
        <mxCell id="XWgAUVcv_2Dy-B0LPTtw-11" value="" style="endArrow=classic;html=1;fontSize=20;exitX=0;exitY=0.75;exitDx=0;exitDy=0;strokeColor=#0000CC;" edge="1" parent="BUosscFTYAn1jjuJmevA-1">
          <mxGeometry width="50" height="50" relative="1" as="geometry">
            <mxPoint x="520" y="320" as="sourcePoint" />
            <mxPoint x="440" y="320" as="targetPoint" />
          </mxGeometry>
        </mxCell>
        <mxCell id="XWgAUVcv_2Dy-B0LPTtw-12" value="" style="endArrow=classic;html=1;fontSize=20;entryX=0;entryY=0.5;entryDx=0;entryDy=0;exitX=1;exitY=0.5;exitDx=0;exitDy=0;strokeColor=#00CC00;" edge="1" parent="BUosscFTYAn1jjuJmevA-1">
          <mxGeometry width="50" height="50" relative="1" as="geometry">
            <mxPoint x="840" y="269.5" as="sourcePoint" />
            <mxPoint x="920" y="269.5" as="targetPoint" />
          </mxGeometry>
        </mxCell>
        <mxCell id="XWgAUVcv_2Dy-B0LPTtw-14" value="" style="rounded=1;whiteSpace=wrap;html=1;fontSize=20;fillColor=#dae8fc;strokeColor=#6c8ebf;" vertex="1" parent="BUosscFTYAn1jjuJmevA-1">
          <mxGeometry x="270" y="430" width="220" height="90" as="geometry" />
        </mxCell>
        <mxCell id="XWgAUVcv_2Dy-B0LPTtw-15" value="运用技术" style="text;html=1;strokeColor=none;fillColor=none;align=center;verticalAlign=middle;whiteSpace=wrap;rounded=0;fontSize=20;" vertex="1" parent="BUosscFTYAn1jjuJmevA-1">
          <mxGeometry x="325" y="440" width="110" height="20" as="geometry" />
        </mxCell>
        <mxCell id="XWgAUVcv_2Dy-B0LPTtw-13" value="Servlet / SpringMVC" style="text;html=1;strokeColor=none;fillColor=none;align=center;verticalAlign=middle;whiteSpace=wrap;rounded=0;fontSize=20;" vertex="1" parent="BUosscFTYAn1jjuJmevA-1">
          <mxGeometry x="255" y="480" width="260" height="20" as="geometry" />
        </mxCell>
        <mxCell id="XWgAUVcv_2Dy-B0LPTtw-17" value="" style="rounded=1;whiteSpace=wrap;html=1;fontSize=20;fillColor=#ffe6cc;strokeColor=#d79b00;" vertex="1" parent="BUosscFTYAn1jjuJmevA-1">
          <mxGeometry x="670" y="430" width="220" height="90" as="geometry" />
        </mxCell>
        <mxCell id="XWgAUVcv_2Dy-B0LPTtw-18" value="运用技术" style="text;html=1;strokeColor=none;fillColor=none;align=center;verticalAlign=middle;whiteSpace=wrap;rounded=0;fontSize=20;" vertex="1" parent="BUosscFTYAn1jjuJmevA-1">
          <mxGeometry x="725" y="440" width="110" height="20" as="geometry" />
        </mxCell>
        <mxCell id="XWgAUVcv_2Dy-B0LPTtw-19" value="JDBC / MyBatis&lt;br&gt;" style="text;html=1;strokeColor=none;fillColor=none;align=center;verticalAlign=middle;whiteSpace=wrap;rounded=0;fontSize=20;" vertex="1" parent="BUosscFTYAn1jjuJmevA-1">
          <mxGeometry x="700" y="480" width="170" height="20" as="geometry" />
        </mxCell>
        <mxCell id="XWgAUVcv_2Dy-B0LPTtw-21" value="SpringMVC 流程图" style="text;html=1;strokeColor=none;fillColor=none;align=center;verticalAlign=middle;whiteSpace=wrap;rounded=0;fontSize=20;" vertex="1" parent="BUosscFTYAn1jjuJmevA-1">
          <mxGeometry x="477" y="60" width="215" height="20" as="geometry" />
        </mxCell>
      </root>
    </mxGraphModel>
  </diagram>
</mxfile>
